PathFileType	4	(X/Y/Z)	40_2_94_p0_0-306_filt_butterworth.trc
DataRate	CameraRate	NumFrames	NumMarkers	Units	OrigDataRate	OrigDataStartFrame	OrigNumFrames
40.0	40.0	5	27	m	40.0	153	306
Frame#	Time	RHip			RKnee			RAnkle			RBigToe			RSmallToe			RHeel			LHip			LKnee			LAnkle			LBigToe			LSmallToe			LHeel			Neck			Head			Nose			RShoulder			RElbow			RWrist			RThumb			RIndex			RPinky			LShoulder			LElbow			LWrist			LThumb			LIndex			LPinky			
		X1	Y1	Z1	X2	Y2	Z2	X3	Y3	Z3	X4	Y4	Z4	X5	Y5	Z5	X6	Y6	Z6	X7	Y7	Z7	X8	Y8	Z8	X9	Y9	Z9	X10	Y10	Z10	X11	Y11	Z11	X12	Y12	Z12	X13	Y13	Z13	X14	Y14	Z14	X15	Y15	Z15	X16	Y16	Z16	X17	Y17	Z17	X18	Y18	Z18	X19	Y19	Z19	X20	Y20	Z20	X21	Y21	Z21	X22	Y22	Z22	X23	Y23	Z23	X24	Y24	Z24	X25	Y25	Z25	X26	Y26	Z26	X27	Y27	Z27	
153	3.825	0.31891228174881375	0.7535883726696309	0.8452861509221241	0.3117205235537755	0.31836350435724337	0.7949492353473258	0.29072936896700724	-0.10833969445619235	0.8171682046425005	0.30719513864321135	-0.08649963521415628	0.6776342786741885	0.36150094601312155	-0.09995957258932577	0.7163158096533039	0.25762763176567605	-0.2150183213361897	0.9050252895061375	0.14021451342945662	0.7599068304202754	0.7494495022571129	0.11249324213549872	0.289980937126853	0.8191422054063195	0.09846793482522904	-0.12273899634957833	0.8379562858996547	0.1602517144720202	-0.048654650484107	0.6364569610459714	0.11476777700829063	-0.06458484599725073	0.6548453822966885	0.09183892233625889	-0.1689061977655253	0.8677255746973073	0.24876187260998855	1.2757797142350005	0.7987974427054556	0.26883263621520737	1.5312142311627979	0.8044178433040152	0.3005357769471645	1.393305737387447	0.7158713321459296	0.368815869109474	1.2033543530237643	0.8406543604969305	0.49374956001534104	1.0455436954323916	0.6801442803970155	0.5690023205362903	1.0048042430199968	0.5283918980762332	0.5870961968748639	1.0352121552875007	0.3772496258900171	0.6017587999206655	1.014318726033952	0.39681499892010874	0.5944181592447011	0.9678426166700441	0.4357411338698257	0.10291355652613064	1.227551728325749	0.7342371099793252	0.17686571038577667	1.059008928571176	0.5666287467264306	0.3641873763926651	1.0510481995063812	0.3874854534050737	0.4702659811640144	1.0723137127350544	0.3655486715332681	0.4933534630903432	1.085024924800237	0.3297176149799748	0.46499550073672613	1.0188648680256134	0.3461779847967187	
154	3.85	0.3189794632715396	0.7535742922115783	0.8451911228259935	0.31164122939715483	0.3181815553122443	0.7948735471797452	0.2908456863014241	-0.10871258495831417	0.8176047804039288	0.3077800906929218	-0.0884604031189229	0.679887964928531	0.3615919456323376	-0.10132356656315636	0.7183295490507843	0.25764063421134537	-0.2145929153407577	0.9046436576911784	0.1395348725203581	0.7598323538829996	0.7491319081714869	0.11206633633111343	0.28916662362564394	0.8192413235695977	0.0987685283837592	-0.12232106902994837	0.8372900625379611	0.16024670547709202	-0.04865951044715146	0.6364268353613949	0.11451645314746763	-0.06552801659647449	0.6552183098530296	0.09181076925675216	-0.16882581999222043	0.8673240330177447	0.24770857754058323	1.2752268318912559	0.8011609243398158	0.26902208523990284	1.531249542226902	0.8039591292540758	0.30033727356800505	1.393036671515964	0.7169964974701866	0.36886678829210146	1.2028318394917086	0.8406173273491543	0.4945154970536959	1.0449235382090827	0.680558557010258	0.5703067654514309	1.005662864496391	0.5255375307989694	0.5875301438567743	1.0368565027999022	0.3793641589209914	0.6017117929152507	1.0159140683330325	0.39660267524760495	0.5943789542370681	0.9707574137746317	0.43172533052247203	0.10173832585720488	1.2281198987222754	0.7339861272479963	0.17716528516062263	1.0599683027260693	0.5643977093491643	0.3643866904469144	1.0510239531146601	0.3871047654902935	0.4694654175642813	1.0736539174757238	0.36509894897047845	0.49243543638948306	1.0852987731756318	0.3298385574752174	0.46598058565966755	1.0194025070956008	0.3465024311607034	
155	3.875	0.3190491050169888	0.753662464517602	0.8449998768966811	0.311443150371898	0.3180482603503646	0.794590745854003	0.29098006468581994	-0.10870427723232008	0.8179327003710752	0.3081102265650343	-0.09003362062312467	0.6810438317036712	0.36100100612342145	-0.10275442991079806	0.7203857676385832	0.25778131772658247	-0.21473057325352035	0.9046201426822319	0.13869761137726533	0.7601376355262387	0.7483337354192924	0.11158982358555568	0.2882984959732138	0.8195283367290139	0.09907019238529624	-0.1219790056405389	0.8367260101447732	0.16023680558806583	-0.048688557441566055	0.6364192893069062	0.11422123378476651	-0.06667932910689091	0.6557069169217355	0.09193338475661324	-0.16891920751437464	0.8673170539173322	0.24684194311193786	1.2748043026477687	0.803110576768358	0.26912672067609805	1.5311855240886556	0.8036515065256304	0.29996562761129164	1.3927170376421851	0.7185761034103977	0.3689251173609689	1.2021790330716833	0.8405049094717505	0.49453485561804045	1.0433770497445125	0.6823897673005737	0.5713603066400937	1.0055976071862303	0.5237879066437663	0.5884919429986717	1.036996187638591	0.38096806886325285	0.601408664220639	1.0158925504536316	0.3970165258719026	0.5940961636578147	0.9714778652744722	0.4306582306159542	0.10032117071134719	1.2289340069690124	0.7327628022643393	0.1765272828611281	1.060704666918927	0.5622612316326407	0.364113026745848	1.050711821910446	0.3876933904012394	0.46754197541620235	1.0748424534994572	0.3657111960342353	0.48936912462529103	1.0840516104543305	0.3315325445785717	0.4660079334313617	1.0194109467494117	0.3472737881399555	
156	3.9	0.3190637327251679	0.7539159707172456	0.8444350739984557	0.31114395366583886	0.3179740909543648	0.7940901790989452	0.29107894637898934	-0.10853162682479411	0.8181214938712991	0.3080623567731922	-0.09085983384081903	0.6807310662236196	0.35973322204193525	-0.10406731419075213	0.7222191220769401	0.2580058066143599	-0.21544412598220974	0.9051338074771271	0.1377427105329498	0.760726525983054	0.7470646781006871	0.11111317648917862	0.2875165628017602	0.8197278104002487	0.09939068723336791	-0.12165172542131537	0.8362898468327886	0.1602236658535163	-0.048729018529516735	0.6364184924971245	0.1142983597157476	-0.06700225414352975	0.6555686376429527	0.09218200748834705	-0.16907692077289724	0.867708117167904	0.24636382191564493	1.274710415385904	0.8042147927167616	0.26909432772890957	1.5310394233566913	0.8036682174297214	0.2995229505029829	1.3923076225480717	0.7206022466729948	0.36892781222429144	1.2015001745200653	0.8402918957948369	0.49431956386412107	1.041360569329396	0.6840906868026644	0.571795430692505	1.0044187769540878	0.5241464014173944	0.5893591160052736	1.0355279427394548	0.38187619459266636	0.6006414538465906	1.0144464433191762	0.397189031004178	0.5937549641140943	0.9698958102599067	0.432569086049028	0.09911687088059644	1.2303504208713054	0.7306659747080708	0.1749603888783727	1.0608442384926884	0.5602399958414228	0.36313496670581225	1.0500321537392359	0.38969204508735367	0.46494524223386047	1.0754828464104786	0.3671943423319666	0.48504119663405865	1.0819191190031492	0.3339146218970514	0.46510809962313104	1.0193132333668367	0.3484330232765392	
157	3.925	0.3189847946893736	0.7543000228572802	0.8434609840245472	0.31076975775386545	0.3179963431601829	0.7934283972122048	0.29114063932777984	-0.10830116688007253	0.8181998422981148	0.3079436559821592	-0.09125738439267138	0.6802629885673821	0.35880953521916925	-0.10410135834162577	0.7222093589323105	0.2583521546245519	-0.21623283224378168	0.9058892343144879	0.1367039912273727	0.7615036818094509	0.7454899153626917	0.11068597865846802	0.2868379219939953	0.8196386097944178	0.09966685165986665	-0.12131098625769661	0.8359890748480548	0.16022666823299464	-0.04876698802256839	0.6364137035882446	0.11497269811619401	-0.06615805226221579	0.654330352901018	0.09243301869257359	-0.1692967569914133	0.8684087258015716	0.2463289649376323	1.2748552433262157	0.8043571886504817	0.26904802238825565	1.5310490030002553	0.8037966630224298	0.29904346882897703	1.3918538211455336	0.7227079076062808	0.36890716534878076	1.2008823114655975	0.8399923997581324	0.4942268149076112	1.0394792455422877	0.6857765217719693	0.5715920015765662	1.0025365411401523	0.5257355534024084	0.5894402055985251	1.0324945992313044	0.3817997910383318	0.5995135304915006	1.011827986902777	0.3963562846451564	0.593536483066772	0.9668513712259834	0.4355628888505007	0.09835336234639658	1.232087275974224	0.7281486747935513	0.17264682112768664	1.0607237990584744	0.5582101605036499	0.36171564479282303	1.048853026648685	0.3930120057001242	0.4625767444037606	1.0759277202156903	0.3691144416060935	0.481072137138306	1.080164898582662	0.33514055946744986	0.4637443757268312	1.0190269157556546	0.3500939187242093	
